# xmcd
#
# Track frame offsets: 
#        150
#        18044
#        29871
#        43204
#        56651
#        65908
#        76482
#        90747
#        102315
#        123687
#        134800
#        146336
#        158398
#        171303
#        185605
#        201612
#        215590
#        227482
#        246440
#        258237
#        268651
#        285883
#        299545
#        308954
#        318905
#        327717
#        334118
#        342291
#        352985
#
# Disc length: 4784 seconds
#
# Revision: 0
# Processed by: cddbd v1.5.2PL0 Copyright (c) Steve Scherf et al.
# Submitted via: ExactAudioCopy v0.95b3
#
DISCID=d112ae1d
DTITLE=The Beatles  - The Beatles Deluxe - Disc 05 - demos  PC-135  FL
DTITLE=AC
DYEAR=1900
DGENRE=
TTITLE0=Julia
TTITLE1=Blackbird
TTITLE2=Rocky Raccoon
TTITLE3=Back In The USSR
TTITLE4=Honey Pie
TTITLE5=Mother Nature's Son
TTITLE6=Ob-La-Di Ob-La-Da
TTITLE7=Junk
TTITLE8=Dear Prudence
TTITLE9=Sexy Sadie
TTITLE10=Cry Baby Cry
TTITLE11=Child Of Nature
TTITLE12=The Continuing Story Of Bungalow Bill
TTITLE13=I'm So Tired
TTITLE14=Yer Blues
TTITLE15=Everybody's Got Something To Hide Except For Me And My Monkey
TTITLE16=What's The New Mary Jane
TTITLE17=Revolution
TTITLE18=While My Guitar Gently Weeps
TTITLE19=Circles
TTITLE20=Sour Milk Sea
TTITLE21=Not Guilty
TTITLE22=Piggies
TTITLE23=Happiness Is A Warm Gun
TTITLE24=Mean Mr. Mustard
TTITLE25=Polythene Pam
TTITLE26=Glass Onion
TTITLE27=Junk
TTITLE28=Honey Pie
EXTD=
EXTT0=
EXTT1=
EXTT2=
EXTT3=
EXTT4=
EXTT5=
EXTT6=
EXTT7=
EXTT8=
EXTT9=
EXTT10=
EXTT11=
EXTT12=
EXTT13=
EXTT14=
EXTT15=
EXTT16=
EXTT17=
EXTT18=
EXTT19=
EXTT20=
EXTT21=
EXTT22=
EXTT23=
EXTT24=
EXTT25=
EXTT26=
EXTT27=
EXTT28=
PLAYORDER=
